<?xml version="1.0" encoding="UTF-8" standalone="no"?>
<svg xmlns="http://www.w3.org/2000/svg" version="1.1" viewBox="0 0 37 53"><!-- Generator: Sketch 48 (47235) - http://www.bohemiancoding.com/sketch -->
  <title>app-mod-ico</title>
  <desc>Created with Sketch.</desc>
  <g fill="none">
    <g id="api-ico" transform="matrix(1 0 0 -1 0 52.458)">
      <path id="Rectangle" d="m1 1h35v11h-35z" stroke-width="2" stroke="#325c80"/>
      <g transform="translate(3,12)">
        <path id="XMLID_4511_" d="m6.7022 10.984a3.2067 3.2067 0 0 1 -3.2066 3.207 3.2067 3.2067 0 0 1 -3.2067 -3.207 3.2067 3.2067 0 0 1 3.2067 -3.2062 3.2067 3.2067 0 0 1 3.2066 3.2062z" stroke-width="1.9998" stroke="#325c80"/>
        <path d="m2.7556 0.62222h1.6444v7.16h-1.6444z" fill="#325c80"/>
        <path d="m3.7556 13.622h1.6444v7.16h-1.6444z" transform="rotate(-13 4.5778 17.202)" fill="#325c80"/>
      </g>
      <g transform="matrix(-1,0,0,1,34,12)">
        <path d="m6.7022 10.984a3.2067 3.2067 0 0 1 -3.2066 3.207 3.2067 3.2067 0 0 1 -3.2067 -3.207 3.2067 3.2067 0 0 1 3.2067 -3.2062 3.2067 3.2067 0 0 1 3.2066 3.2062z" stroke-width="1.9998" stroke="#325c80"/>
        <path d="m2.7556 0.62222h1.6444v7.16h-1.6444z" fill="#325c80"/>
        <path d="m3.7556 13.622h1.6444v7.16h-1.6444z" transform="rotate(-13 4.5778 17.202)" fill="#325c80"/>
      </g>
    </g>
    <path id="Shape" stroke-linejoin="round" d="m27.278 19.903h0.12355c3.2741 0 5.8687-2.6563 5.8687-5.8687 0-3.0888-2.4092-5.6216-5.498-5.8687-0.186-3.9537-3.522-7.166-7.538-7.166-3.027 0-5.621 1.7915-6.857 4.3243-0.865-0.3707-1.853-0.556-2.841-0.556-4.1393 0-7.537 3.3977-7.537 7.5367s3.3977 7.5366 7.5366 7.5366z" stroke="#325c80" stroke-linecap="round" stroke-width="1.9998"/>
    <path d="m21.803 29.474a3.2067 3.2067 0 0 1 -3.2067 3.2067 3.2067 3.2067 0 0 1 -3.2067 -3.2067 3.2067 3.2067 0 0 1 3.2067 -3.2067 3.2067 3.2067 0 0 1 3.2067 3.2067z" stroke="#325c80" stroke-width="1.9998"/>
  </g>
  <path d="m18 33h1.6444v7.16h-1.644z" fill-rule="evenodd" fill="#325c80"/>
  <path d="m18 19h1.6444v7.16h-1.644z" fill-rule="evenodd" fill="#325c80"/>
</svg>
