<?xml version="1.0" encoding="UTF-8" standalone="no"?>
<svg
   xmlns:dc="http://purl.org/dc/elements/1.1/"
   xmlns:cc="http://creativecommons.org/ns#"
   xmlns:rdf="http://www.w3.org/1999/02/22-rdf-syntax-ns#"
   xmlns:svg="http://www.w3.org/2000/svg"
   xmlns="http://www.w3.org/2000/svg"
   xmlns:sodipodi="http://sodipodi.sourceforge.net/DTD/sodipodi-0.dtd"
   xmlns:inkscape="http://www.inkscape.org/namespaces/inkscape"
   version="1.1"
   viewBox="0 0 100 100"
   id="svg3741"
   sodipodi:docname="devops-navy.svg"
   inkscape:version="0.92.4 (5da689c313, 2019-01-14)">
  <metadata
     id="metadata3747">
    <rdf:RDF>
      <cc:Work
         rdf:about="">
        <dc:format>image/svg+xml</dc:format>
        <dc:type
           rdf:resource="http://purl.org/dc/dcmitype/StillImage" />
        <dc:title></dc:title>
      </cc:Work>
    </rdf:RDF>
  </metadata>
  <defs
     id="defs3745" />
  <sodipodi:namedview
     pagecolor="#ffffff"
     bordercolor="#666666"
     borderopacity="1"
     objecttolerance="10"
     gridtolerance="10"
     guidetolerance="10"
     inkscape:pageopacity="0"
     inkscape:pageshadow="2"
     inkscape:window-width="2926"
     inkscape:window-height="1521"
     id="namedview3743"
     showgrid="false"
     inkscape:zoom="12.44"
     inkscape:cx="33.23955"
     inkscape:cy="50"
     inkscape:window-x="-13"
     inkscape:window-y="-13"
     inkscape:window-maximized="1"
     inkscape:current-layer="svg3741" />
  <style
     id="style3731">.st0{fill:none;stroke:#325c80;stroke-width:3;stroke-miterlimit:10}.st1{stroke-linejoin:round}.st1,.st2{fill:none;stroke:#325c80;stroke-width:3;stroke-linecap:round;stroke-miterlimit:10}</style>
  <path
     style="color-rendering:auto;text-decoration-color:#000000;color:#000000;font-variant-numeric:normal;text-orientation:mixed;shape-rendering:auto;font-variant-ligatures:normal;text-decoration-line:none;font-variant-position:normal;mix-blend-mode:normal;font-feature-settings:normal;shape-padding:0;font-variant-alternates:normal;text-indent:0;dominant-baseline:auto;font-variant-caps:normal;image-rendering:auto;white-space:normal;text-decoration-style:solid;solid-color:#000000;isolation:auto;text-transform:none"
     d="m37.116 71.314c-3.1656-0.36393-6.4185 1.1255-8.1484 4.0391l-0.02734 0.04687-0.125 0.24805 0.03125-0.05859c-1.4123 2.5422-1.1916 6.1415-0.98438 8.9395a1.5002 1.5002 0 1 0 2.9922 -0.2207c-0.19274-2.602 0.02757-6.2039 0.61524-7.2617l0.01563-0.02734 0.07422-0.14648c1.4971-2.5037 4.6718-3.3481 7.1621-1.9473a1.5002 1.5002 0 1 0 1.4727 -2.6133c-0.97619-0.54911-2.0229-0.87674-3.0781-0.99805z"
     id="path3733" />
  <path
     style="color-rendering:auto;text-decoration-color:#000000;color:#000000;font-variant-numeric:normal;text-orientation:mixed;shape-rendering:auto;font-variant-ligatures:normal;text-decoration-line:none;font-variant-position:normal;mix-blend-mode:normal;font-feature-settings:normal;shape-padding:0;font-variant-alternates:normal;text-indent:0;dominant-baseline:auto;font-variant-caps:normal;image-rendering:auto;white-space:normal;text-decoration-style:solid;solid-color:#000000;isolation:auto;text-transform:none"
     d="m39.393 72.009a1.5002 1.5002 0 0 0 -0.7832 2.8086c2.6163 1.5063 3.4401 4.6369 1.957 7.1348l-0.02734 0.04687-0.0957 0.19336c-0.27407 0.49199-1.1647 1.3436-2.2988 2.1074-1.1352 0.7645-2.488 1.4911-3.6582 2.0762a1.5002 1.5002 0 1 0 1.3418 2.6836c1.2298-0.61491 2.6774-1.386 3.9922-2.2715s2.5213-1.8324 3.248-3.1406l0.01563-0.0293 0.11524-0.22852-0.05273 0.09375c2.3169-3.9022 0.94272-8.972-3.041-11.266a1.5002 1.5002 0 0 0 -0.71289 -0.20898z"
     id="path3735" />
  <path
     style="color-rendering:auto;text-decoration-color:#000000;color:#000000;font-variant-numeric:normal;text-orientation:mixed;shape-rendering:auto;font-variant-ligatures:normal;text-decoration-line:none;font-variant-position:normal;mix-blend-mode:normal;font-feature-settings:normal;shape-padding:0;font-variant-alternates:normal;text-indent:0;dominant-baseline:auto;font-variant-caps:normal;image-rendering:auto;white-space:normal;text-decoration-style:solid;solid-color:#000000;isolation:auto;text-transform:none"
     d="m70.723 15.259c-0.76777-0.02674-1.5557 0.14158-2.2891 0.54492a1.5002 1.5002 0 0 0 -0.02539 0.01563c-5.2072 3.0042-12.908 7.5039-12.908 7.5039-7.3677 4.2567-13.178 10.693-16.705 18.369a1.5002 1.5002 0 0 0 -0.0039 0.0078l-5.2012 11.5c-0.28743 0.63031-0.71633 0.91798-1.332 0.91798h-10.702a1.5002 1.5002 0 0 0 -1.5 1.5v11a1.5002 1.5002 0 1 0 3 0v-9.5h9.2012c1.7833 0 3.3519-1.112 4.0645-2.6797a1.5002 1.5002 0 0 0 0.002 -0.002l5.1953-11.492 0.002-0.0039 0.002-0.0039c3.2722-7.1175 8.6582-13.078 15.484-17.02a1.5002 1.5002 0 0 0 0.0059 -0.0039s7.6748-4.4846 12.867-7.4805c1.0666-0.58663 2.2754 0.07211 2.2754 1.2852v14.9c0 7.8951-2.4051 15.584-7.0117 21.918a1.5002 1.5002 0 0 0 -0.0078 0.0098l-7.2637 10.15c-1.0873 1.3979-1.2356 3.3397-0.30274 4.8945l4.5391 7.8789-8.2031 4.75a1.5002 1.5002 0 1 0 1.502 2.5957l9.5-5.5a1.5002 1.5002 0 0 0 0.54864 -2.0469l-5.3008-9.1992a1.5002 1.5002 0 0 0 -0.012 -0.024c-0.26709-0.44515-0.21509-1.1038 0.09766-1.5059a1.5002 1.5002 0 0 0 0.03711 -0.04883l7.293-10.191 0.0059-0.0078c4.9896-6.8644 7.58-15.172 7.58-23.674v-14.9c0-2.5402-2.1303-4.3788-4.4336-4.459z"
     id="path3737" />
  <path
     style="color-rendering:auto;text-decoration-color:#000000;color:#000000;font-variant-numeric:normal;text-orientation:mixed;shape-rendering:auto;font-variant-ligatures:normal;text-decoration-line:none;font-variant-position:normal;mix-blend-mode:normal;font-feature-settings:normal;shape-padding:0;font-variant-alternates:normal;text-indent:0;dominant-baseline:auto;font-variant-caps:normal;image-rendering:auto;white-space:normal;text-decoration-style:solid;solid-color:#000000;isolation:auto;text-transform:none"
     d="m56.459 36.02c-4.511 0-8.199 3.688-8.199 8.199s3.688 8.201 8.199 8.201 8.199-3.69 8.199-8.201-3.688-8.199-8.199-8.199zm0 3c2.89 0 5.199 2.309 5.199 5.199 0 2.889-2.309 5.201-5.199 5.201s-5.199-2.312-5.199-5.201c0-2.89 2.309-5.199 5.199-5.199z"
     id="path3739" />
  <path
     style="fill:#325d80;stroke-width:0.08038585;fill-opacity:0"
     d="M 53.907661,86.809409 C 53.39685,86.49792 53.09965,85.901193 53.175113,85.338577 c 0.09478,-0.706642 0.120458,-0.725175 4.570984,-3.299257 2.272683,-1.314468 4.192734,-2.435851 4.266781,-2.491961 0.120999,-0.09169 -0.109417,-0.525262 -2.275669,-4.282086 -1.325665,-2.299035 -2.467077,-4.360932 -2.536473,-4.581993 -0.31272,-0.996181 -0.213945,-2.291797 0.242815,-3.184954 0.144233,-0.282037 1.974459,-2.900255 4.067168,-5.818262 2.092709,-2.918006 4.074086,-5.703376 4.403061,-6.18971 2.96244,-4.379475 4.983612,-9.594831 5.841177,-15.072348 0.383002,-2.446348 0.392519,-2.714432 0.42568,-11.991309 0.02325,-6.504368 0.0072,-8.906533 -0.06139,-9.161073 -0.122056,-0.453278 -0.580591,-0.909847 -1.037266,-1.032816 -0.69531,-0.187228 0.06258,-0.58887 -10.736326,5.689705 -4.127147,2.399558 -5.948109,3.543839 -7.355305,4.622026 -4.631701,3.54879 -8.481939,8.22094 -11.007243,13.356965 -0.305323,0.620973 -1.738043,3.750904 -3.183821,6.9554 -1.445778,3.204497 -2.76771,6.031078 -2.937628,6.281292 -0.582868,0.858311 -1.541732,1.535661 -2.537252,1.792335 -0.424416,0.109427 -1.18512,0.127347 -5.405949,0.127347 h -4.91203 v 4.938497 c 0,3.293826 -0.02847,5.01386 -0.0855,5.164791 -0.104741,0.277221 -0.443008,0.643908 -0.734463,0.796172 -0.281699,0.147166 -0.974863,0.14548 -1.262128,-0.0031 -0.330152,-0.170728 -0.716492,-0.645233 -0.770979,-0.946921 -0.02612,-0.144635 -0.03695,-2.888394 -0.02406,-6.097241 l 0.02343,-5.83427 0.225718,-0.295894 c 0.124145,-0.162742 0.366876,-0.367908 0.539402,-0.455924 0.304365,-0.155276 0.481027,-0.16003 5.946478,-0.16003 6.00455,0 5.946906,0.0035 6.377048,-0.384899 0.219615,-0.198292 0.345596,-0.465014 3.02656,-6.407705 1.336364,-2.962219 2.712963,-5.964631 3.059108,-6.672026 2.748745,-5.61744 6.874496,-10.638178 11.882895,-14.460616 2.013765,-1.536915 2.762757,-1.992643 13.958868,-8.493334 1.856913,-1.078162 3.582602,-2.043684 3.834864,-2.145605 0.921808,-0.372435 2.187754,-0.3774 3.163286,-0.01241 1.404304,0.525417 2.583095,1.869511 2.847679,3.247009 0.06781,0.353033 0.08397,2.971001 0.0603,9.766881 -0.03112,8.93437 -0.03889,9.336002 -0.205934,10.648264 -0.82068,6.446938 -2.755591,11.952952 -5.989795,17.044662 -0.308915,0.486335 -2.417106,3.479177 -4.68487,6.650761 -2.662124,3.723117 -4.152961,5.877013 -4.207173,6.078343 -0.04618,0.171505 -0.06042,0.434289 -0.03164,0.583966 0.02878,0.149677 1.303975,2.442557 2.833768,5.09529 l 2.781443,4.823151 v 0.488186 c 0,0.883704 0.0313,0.85827 -3.747074,3.044663 -7.216217,4.175733 -6.711615,3.90288 -7.217172,3.902542 -0.299344,-1.61e-4 -0.53387,-0.05111 -0.698833,-0.151705 z"
     id="path3749"
     inkscape:connector-curvature="0" />
  <path
     style="fill:#325d80;fill-opacity:0;stroke-width:0.08038585"
     d="m 53.919404,86.811662 c -0.771447,-0.470443 -0.980992,-1.35989 -0.492906,-2.092222 0.159258,-0.238954 0.926709,-0.714766 4.347461,-2.695379 2.284734,-1.32286 4.20423,-2.444243 4.265546,-2.491961 0.09054,-0.07047 -0.333044,-0.856808 -2.255156,-4.186441 -1.301651,-2.254823 -2.442837,-4.298633 -2.535968,-4.5418 -0.208561,-0.544558 -0.287801,-1.709469 -0.158572,-2.33119 0.05054,-0.243167 0.180932,-0.634183 0.289752,-0.868924 0.108819,-0.234741 2.001409,-2.947763 4.205755,-6.028939 2.204346,-3.081176 4.224784,-5.9277 4.489865,-6.32561 2.754723,-4.135089 4.708295,-9.115362 5.565456,-14.188103 0.512267,-3.031637 0.516705,-3.134255 0.549913,-12.713595 0.02238,-6.456271 0.006,-8.824793 -0.06294,-9.080687 -0.121705,-0.451979 -0.580529,-0.910931 -1.032287,-1.032577 -0.707736,-0.190573 -0.114681,-0.505177 -10.983424,5.8265 -2.210965,1.288016 -4.393896,2.584521 -4.850958,2.881123 -3.467935,2.250448 -6.86977,5.415337 -9.473635,8.81377 -0.850217,1.10966 -2.191289,3.15689 -2.922524,4.461415 -0.761786,1.359027 -1.037415,1.944788 -3.971664,8.440514 -1.358064,3.006431 -2.601115,5.719454 -2.762333,6.028939 -0.362979,0.696796 -1.163029,1.514454 -1.822102,1.862204 -0.965262,0.509305 -0.963684,0.509179 -6.382182,0.509179 H 23.01447 v 4.946932 c 0,4.7045 -0.0075,4.961549 -0.152948,5.245177 -0.292569,0.570499 -0.70258,0.820753 -1.344708,0.820753 -0.406371,0 -0.609227,-0.08441 -0.941192,-0.391656 -0.476733,-0.441225 -0.455053,-0.12967 -0.454917,-6.537632 1.4e-4,-6.60342 -0.03635,-6.189675 0.590072,-6.690399 l 0.308847,-0.246873 5.840671,-0.04019 c 5.657818,-0.03894 5.849216,-0.04523 6.113618,-0.200964 0.150122,-0.08843 0.340022,-0.251206 0.422001,-0.361737 0.08198,-0.11053 1.325896,-2.805466 2.764258,-5.988746 3.016256,-6.675358 3.406847,-7.498415 4.299786,-9.060534 3.431935,-6.003867 8.248846,-11.00033 14.065766,-14.590071 0.856596,-0.528623 3.905573,-2.308832 11.12834,-6.497513 1.588833,-0.921408 3.094162,-1.758242 3.345174,-1.85963 1.213271,-0.490062 2.715003,-0.357525 3.921376,0.346084 0.606152,0.353534 1.336193,1.109709 1.652514,1.711669 0.557743,1.061385 0.53141,0.56298 0.531047,10.051289 -3.21e-4,8.732016 -0.02623,9.693179 -0.327098,12.141471 -0.739,6.013509 -2.984774,12.095504 -6.292674,17.041801 -0.310459,0.464228 -2.328654,3.308919 -4.484876,6.321535 -4.134891,5.777154 -4.192037,5.869054 -4.025234,6.473166 0.04197,0.151991 1.31693,2.426801 2.833252,5.055132 3.044483,5.277185 3.00092,5.180636 2.657549,5.889944 -0.09789,0.20221 -0.303284,0.445849 -0.471939,0.55981 -0.305937,0.206722 -9.255586,5.392411 -9.719869,5.631977 -0.351207,0.181219 -1.043074,0.172528 -1.353881,-0.01701 z"
     id="path4556"
     inkscape:connector-curvature="0" />
  <path
     style="fill:#325d80;fill-opacity:0;stroke-width:0.08038585;opacity:0"
     d="m 53.919404,86.811662 c -0.771447,-0.470443 -0.980992,-1.35989 -0.492906,-2.092222 0.159258,-0.238954 0.926709,-0.714766 4.347461,-2.695379 2.284734,-1.32286 4.20423,-2.444243 4.265546,-2.491961 0.09054,-0.07047 -0.333044,-0.856808 -2.255156,-4.186441 -1.301651,-2.254823 -2.442837,-4.298633 -2.535968,-4.5418 -0.208561,-0.544558 -0.287801,-1.709469 -0.158572,-2.33119 0.05054,-0.243167 0.180932,-0.634183 0.289752,-0.868924 0.108819,-0.234741 2.001409,-2.947763 4.205755,-6.028939 2.204346,-3.081176 4.224784,-5.9277 4.489865,-6.32561 2.754723,-4.135089 4.708295,-9.115362 5.565456,-14.188103 0.512267,-3.031637 0.516705,-3.134255 0.549913,-12.713595 0.02238,-6.456271 0.006,-8.824793 -0.06294,-9.080687 -0.121705,-0.451979 -0.580529,-0.910931 -1.032287,-1.032577 -0.707736,-0.190573 -0.114681,-0.505177 -10.983424,5.8265 -2.210965,1.288016 -4.393896,2.584521 -4.850958,2.881123 -3.467935,2.250448 -6.86977,5.415337 -9.473635,8.81377 -0.850217,1.10966 -2.191289,3.15689 -2.922524,4.461415 -0.761786,1.359027 -1.037415,1.944788 -3.971664,8.440514 -1.358064,3.006431 -2.601115,5.719454 -2.762333,6.028939 -0.362979,0.696796 -1.163029,1.514454 -1.822102,1.862204 -0.965262,0.509305 -0.963684,0.509179 -6.382182,0.509179 H 23.01447 v 4.946932 c 0,4.7045 -0.0075,4.961549 -0.152948,5.245177 -0.292569,0.570499 -0.70258,0.820753 -1.344708,0.820753 -0.406371,0 -0.609227,-0.08441 -0.941192,-0.391656 -0.476733,-0.441225 -0.455053,-0.12967 -0.454917,-6.537632 1.4e-4,-6.60342 -0.03635,-6.189675 0.590072,-6.690399 l 0.308847,-0.246873 5.840671,-0.04019 c 5.657818,-0.03894 5.849216,-0.04523 6.113618,-0.200964 0.150122,-0.08843 0.340022,-0.251206 0.422001,-0.361737 0.08198,-0.11053 1.325896,-2.805466 2.764258,-5.988746 3.016256,-6.675358 3.406847,-7.498415 4.299786,-9.060534 3.431935,-6.003867 8.248846,-11.00033 14.065766,-14.590071 0.856596,-0.528623 3.905573,-2.308832 11.12834,-6.497513 1.588833,-0.921408 3.094162,-1.758242 3.345174,-1.85963 1.213271,-0.490062 2.715003,-0.357525 3.921376,0.346084 0.606152,0.353534 1.336193,1.109709 1.652514,1.711669 0.557743,1.061385 0.53141,0.56298 0.531047,10.051289 -3.21e-4,8.732016 -0.02623,9.693179 -0.327098,12.141471 -0.739,6.013509 -2.984774,12.095504 -6.292674,17.041801 -0.310459,0.464228 -2.328654,3.308919 -4.484876,6.321535 -4.134891,5.777154 -4.192037,5.869054 -4.025234,6.473166 0.04197,0.151991 1.31693,2.426801 2.833252,5.055132 3.044483,5.277185 3.00092,5.180636 2.657549,5.889944 -0.09789,0.20221 -0.303284,0.445849 -0.471939,0.55981 -0.305937,0.206722 -9.255586,5.392411 -9.719869,5.631977 -0.351207,0.181219 -1.043074,0.172528 -1.353881,-0.01701 z"
     id="path4558"
     inkscape:connector-curvature="0" />
  <path
     style="opacity:0;fill:#325d80;fill-opacity:0;stroke-width:0.08038585"
     d="m 55.651125,52.343421 c -2.200042,-0.330423 -3.588581,-1.014944 -5.024115,-2.476788 -1.033293,-1.052229 -1.7009,-2.229924 -2.098031,-3.701038 -0.121614,-0.450501 -0.151989,-0.843201 -0.152338,-1.969454 -3.81e-4,-1.231442 0.02271,-1.486893 0.185297,-2.049839 0.239081,-0.827799 0.800403,-2.011964 1.251802,-2.640797 0.415654,-0.579039 1.27215,-1.438192 1.898479,-1.904371 0.601843,-0.447953 1.738889,-0.994503 2.61254,-1.255783 0.658977,-0.197078 0.845298,-0.216694 2.090032,-0.220033 1.598112,-0.0043 2.224434,0.125115 3.484849,0.719994 4.072031,1.921881 5.843695,6.747365 3.956131,10.775321 -1.174712,2.506771 -3.485392,4.243936 -6.194999,4.657391 -0.71266,0.108744 -1.541458,0.135714 -2.009647,0.0654 z m 2.074897,-3.04419 c 1.423576,-0.335614 2.721238,-1.371967 3.389373,-2.706862 0.777646,-1.553687 0.743158,-3.479862 -0.08851,-4.943234 -0.749047,-1.318 -2.083625,-2.276183 -3.56512,-2.55964 -0.780999,-0.14943 -1.233544,-0.149243 -2.017924,8.33e-4 -2.349912,0.449613 -4.064859,2.437628 -4.190003,4.85717 -0.05177,1.000914 0.108215,1.767811 0.554957,2.660219 0.635078,1.268625 1.990884,2.361598 3.332392,2.686383 0.626061,0.151573 1.952499,0.154205 2.584833,0.0051 z"
     id="path4560"
     inkscape:connector-curvature="0" />
  <path
     style="opacity:0;fill:#325d80;fill-opacity:0;stroke-width:0.08038585"
     d="m 55.651125,52.343421 c -2.200042,-0.330423 -3.588581,-1.014944 -5.024115,-2.476788 -1.033293,-1.052229 -1.7009,-2.229924 -2.098031,-3.701038 -0.121614,-0.450501 -0.151989,-0.843201 -0.152338,-1.969454 -3.81e-4,-1.231442 0.02271,-1.486893 0.185297,-2.049839 0.239081,-0.827799 0.800403,-2.011964 1.251802,-2.640797 0.415654,-0.579039 1.27215,-1.438192 1.898479,-1.904371 0.601843,-0.447953 1.738889,-0.994503 2.61254,-1.255783 0.658977,-0.197078 0.845298,-0.216694 2.090032,-0.220033 1.598112,-0.0043 2.224434,0.125115 3.484849,0.719994 4.072031,1.921881 5.843695,6.747365 3.956131,10.775321 -1.174712,2.506771 -3.485392,4.243936 -6.194999,4.657391 -0.71266,0.108744 -1.541458,0.135714 -2.009647,0.0654 z m 2.074897,-3.04419 c 1.423576,-0.335614 2.721238,-1.371967 3.389373,-2.706862 0.777646,-1.553687 0.743158,-3.479862 -0.08851,-4.943234 -0.749047,-1.318 -2.083625,-2.276183 -3.56512,-2.55964 -0.780999,-0.14943 -1.233544,-0.149243 -2.017924,8.33e-4 -2.349912,0.449613 -4.064859,2.437628 -4.190003,4.85717 -0.05177,1.000914 0.108215,1.767811 0.554957,2.660219 0.635078,1.268625 1.990884,2.361598 3.332392,2.686383 0.626061,0.151573 1.952499,0.154205 2.584833,0.0051 z"
     id="path4562"
     inkscape:connector-curvature="0" />
  <path
     style="fill:#325d80;stroke:none;stroke-width:0.08038585;fill-opacity:0"
     d="m 53.919404,86.811662 c -0.771447,-0.470443 -0.980992,-1.35989 -0.492906,-2.092222 0.159258,-0.238954 0.926709,-0.714766 4.347461,-2.695379 2.284734,-1.32286 4.20423,-2.444243 4.265546,-2.491961 0.09054,-0.07047 -0.333044,-0.856808 -2.255156,-4.186441 -1.301651,-2.254823 -2.442837,-4.298633 -2.535968,-4.5418 -0.208561,-0.544558 -0.287801,-1.709469 -0.158572,-2.33119 0.05054,-0.243167 0.180932,-0.634183 0.289752,-0.868924 0.108819,-0.234741 2.001409,-2.947763 4.205755,-6.028939 2.204346,-3.081176 4.224784,-5.9277 4.489865,-6.32561 2.754723,-4.135089 4.708295,-9.115362 5.565456,-14.188103 0.512267,-3.031637 0.516705,-3.134255 0.549913,-12.713595 0.02238,-6.456271 0.006,-8.824793 -0.06294,-9.080687 -0.121705,-0.451979 -0.580529,-0.910931 -1.032287,-1.032577 -0.707736,-0.190573 -0.114681,-0.505177 -10.983424,5.8265 -2.210965,1.288016 -4.393896,2.584521 -4.850958,2.881123 -3.467935,2.250448 -6.86977,5.415337 -9.473635,8.81377 -0.850217,1.10966 -2.191289,3.15689 -2.922524,4.461415 -0.761786,1.359027 -1.037415,1.944788 -3.971664,8.440514 -1.358064,3.006431 -2.601115,5.719454 -2.762333,6.028939 -0.362979,0.696796 -1.163029,1.514454 -1.822102,1.862204 -0.965262,0.509305 -0.963684,0.509179 -6.382182,0.509179 H 23.01447 v 4.946932 c 0,4.7045 -0.0075,4.961549 -0.152948,5.245177 -0.292569,0.570499 -0.70258,0.820753 -1.344708,0.820753 -0.406371,0 -0.609227,-0.08441 -0.941192,-0.391656 -0.476733,-0.441225 -0.455053,-0.12967 -0.454917,-6.537632 1.4e-4,-6.60342 -0.03635,-6.189675 0.590072,-6.690399 l 0.308847,-0.246873 5.840671,-0.04019 c 5.657818,-0.03894 5.849216,-0.04523 6.113618,-0.200964 0.150122,-0.08843 0.340022,-0.251206 0.422001,-0.361737 0.08198,-0.11053 1.325896,-2.805466 2.764258,-5.988746 3.016256,-6.675358 3.406847,-7.498415 4.299786,-9.060534 3.431935,-6.003867 8.248846,-11.00033 14.065766,-14.590071 0.856596,-0.528623 3.905573,-2.308832 11.12834,-6.497513 1.588833,-0.921408 3.094162,-1.758242 3.345174,-1.85963 1.213271,-0.490062 2.715003,-0.357525 3.921376,0.346084 0.606152,0.353534 1.336193,1.109709 1.652514,1.711669 0.557743,1.061385 0.53141,0.56298 0.531047,10.051289 -3.21e-4,8.732016 -0.02623,9.693179 -0.327098,12.141471 -0.739,6.013509 -2.984774,12.095504 -6.292674,17.041801 -0.310459,0.464228 -2.328654,3.308919 -4.484876,6.321535 -4.134891,5.777154 -4.192037,5.869054 -4.025234,6.473166 0.04197,0.151991 1.31693,2.426801 2.833252,5.055132 3.044483,5.277185 3.00092,5.180636 2.657549,5.889944 -0.09789,0.20221 -0.303284,0.445849 -0.471939,0.55981 -0.305937,0.206722 -9.255586,5.392411 -9.719869,5.631977 -0.351207,0.181219 -1.043074,0.172528 -1.353881,-0.01701 z"
     id="path4564"
     inkscape:connector-curvature="0" />
  <path
     style="fill:#325d80;stroke:none;stroke-width:0.08038585;fill-opacity:1"
     d="m 53.919404,86.811662 c -0.771447,-0.470443 -0.980992,-1.35989 -0.492906,-2.092222 0.159258,-0.238954 0.926709,-0.714766 4.347461,-2.695379 2.284734,-1.32286 4.20423,-2.444243 4.265546,-2.491961 0.09054,-0.07047 -0.333044,-0.856808 -2.255156,-4.186441 -1.301651,-2.254823 -2.442837,-4.298633 -2.535968,-4.5418 -0.208561,-0.544558 -0.287801,-1.709469 -0.158572,-2.33119 0.05054,-0.243167 0.180932,-0.634183 0.289752,-0.868924 0.108819,-0.234741 2.001409,-2.947763 4.205755,-6.028939 2.204346,-3.081176 4.224784,-5.9277 4.489865,-6.32561 2.754723,-4.135089 4.708295,-9.115362 5.565456,-14.188103 0.512267,-3.031637 0.516705,-3.134255 0.549913,-12.713595 0.02238,-6.456271 0.006,-8.824793 -0.06294,-9.080687 -0.121705,-0.451979 -0.580529,-0.910931 -1.032287,-1.032577 -0.707736,-0.190573 -0.114681,-0.505177 -10.983424,5.8265 -2.210965,1.288016 -4.393896,2.584521 -4.850958,2.881123 -3.467935,2.250448 -6.86977,5.415337 -9.473635,8.81377 -0.850217,1.10966 -2.191289,3.15689 -2.922524,4.461415 -0.761786,1.359027 -1.037415,1.944788 -3.971664,8.440514 -1.358064,3.006431 -2.601115,5.719454 -2.762333,6.028939 -0.362979,0.696796 -1.163029,1.514454 -1.822102,1.862204 -0.965262,0.509305 -0.963684,0.509179 -6.382182,0.509179 H 23.01447 v 4.946932 c 0,4.7045 -0.0075,4.961549 -0.152948,5.245177 -0.292569,0.570499 -0.70258,0.820753 -1.344708,0.820753 -0.406371,0 -0.609227,-0.08441 -0.941192,-0.391656 -0.476733,-0.441225 -0.455053,-0.12967 -0.454917,-6.537632 1.4e-4,-6.60342 -0.03635,-6.189675 0.590072,-6.690399 l 0.308847,-0.246873 5.840671,-0.04019 c 5.657818,-0.03894 5.849216,-0.04523 6.113618,-0.200964 0.150122,-0.08843 0.340022,-0.251206 0.422001,-0.361737 0.08198,-0.11053 1.325896,-2.805466 2.764258,-5.988746 3.016256,-6.675358 3.406847,-7.498415 4.299786,-9.060534 3.431935,-6.003867 8.248846,-11.00033 14.065766,-14.590071 0.856596,-0.528623 3.905573,-2.308832 11.12834,-6.497513 1.588833,-0.921408 3.094162,-1.758242 3.345174,-1.85963 1.213271,-0.490062 2.715003,-0.357525 3.921376,0.346084 0.606152,0.353534 1.336193,1.109709 1.652514,1.711669 0.557743,1.061385 0.53141,0.56298 0.531047,10.051289 -3.21e-4,8.732016 -0.02623,9.693179 -0.327098,12.141471 -0.739,6.013509 -2.984774,12.095504 -6.292674,17.041801 -0.310459,0.464228 -2.328654,3.308919 -4.484876,6.321535 -4.134891,5.777154 -4.192037,5.869054 -4.025234,6.473166 0.04197,0.151991 1.31693,2.426801 2.833252,5.055132 3.044483,5.277185 3.00092,5.180636 2.657549,5.889944 -0.09789,0.20221 -0.303284,0.445849 -0.471939,0.55981 -0.305937,0.206722 -9.255586,5.392411 -9.719869,5.631977 -0.351207,0.181219 -1.043074,0.172528 -1.353881,-0.01701 z"
     id="path4566"
     inkscape:connector-curvature="0" />
  <path
     style="fill:#325d80;stroke:none;stroke-width:0.08038585;fill-opacity:0"
     d="m 54.235917,86.887063 c -0.821033,-0.201803 -1.263715,-1.209342 -0.867122,-1.973558 0.194208,-0.374231 0.628109,-0.650659 5.179707,-3.299869 1.877102,-1.092548 3.441314,-2.012359 3.476026,-2.044025 0.112699,-0.102808 -0.226719,-0.752125 -2.260687,-4.324748 -2.792773,-4.905451 -2.608294,-4.506198 -2.646302,-5.727178 -0.05211,-1.673947 -0.554782,-0.842974 6.491704,-10.731511 2.489595,-3.493721 3.118142,-4.439517 3.96269,-5.962789 2.345012,-4.229587 4.002099,-9.577517 4.479032,-14.455218 0.135833,-1.389188 0.214895,-18.670629 0.08736,-19.096285 -0.17868,-0.596383 -0.822817,-1.120757 -1.37673,-1.120757 -0.50184,0 -1.408397,0.493895 -8.559028,4.662973 -5.682118,3.312883 -6.940558,4.069089 -7.958199,4.782142 -1.847464,1.294502 -3.505455,2.71783 -5.352637,4.595054 -2.00041,2.032945 -3.168685,3.471555 -4.59183,5.654365 -1.636345,2.509816 -1.92981,3.089532 -5.162653,10.198396 -3.359018,7.386318 -3.148095,6.965668 -3.843485,7.665183 -0.661206,0.665129 -1.3133,1.04706 -2.030102,1.18903 -0.324015,0.06417 -2.081694,0.109476 -5.355349,0.138025 l -4.873034,0.0425 -0.03801,4.913177 c -0.04151,5.366336 -0.02981,5.237157 -0.515511,5.692316 -0.279294,0.261734 -0.844684,0.403341 -1.24759,0.312471 -0.405595,-0.09148 -0.857681,-0.472603 -0.961116,-0.810261 -0.117459,-0.383434 -0.188834,-8.860312 -0.0904,-10.735856 0.04189,-0.798209 0.115249,-1.524307 0.16301,-1.613551 0.04776,-0.08924 0.224653,-0.255918 0.393092,-0.370389 l 0.306251,-0.208127 4.662379,-0.04829 c 2.564309,-0.02656 5.234357,-0.07015 5.933442,-0.09687 1.205693,-0.04608 1.283427,-0.05898 1.511493,-0.250889 0.315745,-0.265681 0.307608,-0.248878 3.165179,-6.536814 1.354864,-2.98131 2.765728,-6.035516 3.135253,-6.787124 3.103302,-6.312067 8.124173,-11.977032 14.104513,-15.913885 1.46158,-0.962157 12.969407,-7.677674 14.754622,-8.610219 1.306693,-0.68258 2.024782,-0.8071 3.208396,-0.556352 0.917798,0.194435 1.517217,0.526059 2.217089,1.226587 0.732031,0.732717 1.077346,1.354229 1.224878,2.204584 0.142421,0.82089 0.133805,16.873339 -0.01009,18.795587 -0.392367,5.241592 -1.668272,9.984356 -3.953237,14.694873 -1.287414,2.654041 -1.855516,3.562056 -4.938619,7.893552 -1.054235,1.481109 -2.574285,3.616986 -3.377889,4.746392 -1.487106,2.090019 -2.403977,3.448498 -2.639757,3.911191 -0.284793,0.558878 -0.327942,0.467804 2.861901,6.040513 1.147541,2.004772 2.217863,3.921786 2.378495,4.26003 0.364693,0.767941 0.375779,1.092839 0.05273,1.545201 -0.202222,0.283168 -0.681785,0.592832 -3.093028,1.997236 -7.199092,4.193038 -7.355364,4.273317 -8.006848,4.113188 z"
     id="path4568"
     inkscape:connector-curvature="0" />
  <path
     style="fill:#a0a0a0;stroke:none;stroke-width:0.08038585"
     d="m 55.651125,52.343421 c -2.200042,-0.330423 -3.588581,-1.014944 -5.024115,-2.476788 -1.033293,-1.052229 -1.7009,-2.229924 -2.098031,-3.701038 -0.121614,-0.450501 -0.151989,-0.843201 -0.152338,-1.969454 -3.81e-4,-1.231442 0.02271,-1.486893 0.185297,-2.049839 0.239081,-0.827799 0.800403,-2.011964 1.251802,-2.640797 0.415654,-0.579039 1.27215,-1.438192 1.898479,-1.904371 0.601843,-0.447953 1.738889,-0.994503 2.61254,-1.255783 0.658977,-0.197078 0.845298,-0.216694 2.090032,-0.220033 1.598112,-0.0043 2.224434,0.125115 3.484849,0.719994 4.072031,1.921881 5.843695,6.747365 3.956131,10.775321 -1.174712,2.506771 -3.485392,4.243936 -6.194999,4.657391 -0.71266,0.108744 -1.541458,0.135714 -2.009647,0.0654 z m 2.074897,-3.04419 c 1.423576,-0.335614 2.721238,-1.371967 3.389373,-2.706862 0.777646,-1.553687 0.743158,-3.479862 -0.08851,-4.943234 -0.749047,-1.318 -2.083625,-2.276183 -3.56512,-2.55964 -0.780999,-0.14943 -1.233544,-0.149243 -2.017924,8.33e-4 -2.349912,0.449613 -4.064859,2.437628 -4.190003,4.85717 -0.05177,1.000914 0.108215,1.767811 0.554957,2.660219 0.635078,1.268625 1.990884,2.361598 3.332392,2.686383 0.626061,0.151573 1.952499,0.154205 2.584833,0.0051 z"
     id="path4570"
     inkscape:connector-curvature="0" />
  <path
     style="fill:#a0a0a0;stroke:none;stroke-width:0.08038585"
     d="m 34.753741,89.120336 c -0.948966,-0.280786 -1.339135,-1.38857 -0.784339,-2.226924 0.161318,-0.243768 0.390964,-0.407437 1.03691,-0.739006 2.157202,-1.10731 3.659049,-2.08325 4.634849,-3.011851 0.603001,-0.573833 0.762342,-0.783614 1.079733,-1.421532 0.593077,-1.19201 0.741935,-2.22215 0.494328,-3.420893 -0.498601,-2.413882 -2.568577,-4.07298 -5.06487,-4.059521 -1.477301,0.008 -2.73223,0.53263 -3.778077,1.579551 -1.299041,1.300375 -1.578705,2.487294 -1.592852,6.760226 -0.0075,2.255391 -0.01347,2.340437 -0.184615,2.615602 -0.190166,0.305747 -0.62799,0.588723 -1.04871,0.677805 -0.517336,0.109539 -1.205189,-0.247434 -1.467485,-0.761577 -0.341541,-0.669475 -0.420294,-5.050604 -0.120467,-6.70173 0.524934,-2.890779 2.045534,-4.987413 4.501661,-6.206984 1.259002,-0.625148 2.190471,-0.850503 3.57717,-0.865443 1.212641,-0.01306 1.853681,0.08678 2.893891,0.450738 1.148458,0.401833 1.577187,0.651953 2.547232,1.48605 1.798914,1.546803 2.871835,4.110317 2.731914,6.527322 -0.07965,1.375897 -0.458689,2.578251 -1.230821,3.904323 -0.89231,1.532465 -3.110942,3.236342 -6.379515,4.899371 -1.082393,0.550715 -1.412505,0.64272 -1.845937,0.514473 z"
     id="path4572"
     inkscape:connector-curvature="0" />
  <path
     style="fill:#325d80;stroke:none;stroke-width:0.08038585;fill-opacity:0.99632353;opacity:1;"
     d="m 54.235917,86.887063 c -0.821033,-0.201803 -1.263715,-1.209342 -0.867122,-1.973558 0.194208,-0.374231 0.628109,-0.650659 5.179707,-3.299869 1.877102,-1.092548 3.441314,-2.012359 3.476026,-2.044025 0.112699,-0.102808 -0.226719,-0.752125 -2.260687,-4.324748 -2.792773,-4.905451 -2.608294,-4.506198 -2.646302,-5.727178 -0.05211,-1.673947 -0.554782,-0.842974 6.491704,-10.731511 2.489595,-3.493721 3.118142,-4.439517 3.96269,-5.962789 2.345012,-4.229587 4.002099,-9.577517 4.479032,-14.455218 0.135833,-1.389188 0.214895,-18.670629 0.08736,-19.096285 -0.17868,-0.596383 -0.822817,-1.120757 -1.37673,-1.120757 -0.50184,0 -1.408397,0.493895 -8.559028,4.662973 -5.682118,3.312883 -6.940558,4.069089 -7.958199,4.782142 -1.847464,1.294502 -3.505455,2.71783 -5.352637,4.595054 -2.00041,2.032945 -3.168685,3.471555 -4.59183,5.654365 -1.636345,2.509816 -1.92981,3.089532 -5.162653,10.198396 -3.359018,7.386318 -3.148095,6.965668 -3.843485,7.665183 -0.661206,0.665129 -1.3133,1.04706 -2.030102,1.18903 -0.324015,0.06417 -2.081694,0.109476 -5.355349,0.138025 l -4.873034,0.0425 -0.03801,4.913177 c -0.04151,5.366336 -0.02981,5.237157 -0.515511,5.692316 -0.279294,0.261734 -0.844684,0.403341 -1.24759,0.312471 -0.405595,-0.09148 -0.857681,-0.472603 -0.961116,-0.810261 -0.117459,-0.383434 -0.188834,-8.860312 -0.0904,-10.735856 0.04189,-0.798209 0.115249,-1.524307 0.16301,-1.613551 0.04776,-0.08924 0.224653,-0.255918 0.393092,-0.370389 l 0.306251,-0.208127 4.662379,-0.04829 c 2.564309,-0.02656 5.234357,-0.07015 5.933442,-0.09687 1.205693,-0.04608 1.283427,-0.05898 1.511493,-0.250889 0.315745,-0.265681 0.307608,-0.248878 3.165179,-6.536814 1.354864,-2.98131 2.765728,-6.035516 3.135253,-6.787124 3.103302,-6.312067 8.124173,-11.977032 14.104513,-15.913885 1.46158,-0.962157 12.969407,-7.677674 14.754622,-8.610219 1.306693,-0.68258 2.024782,-0.8071 3.208396,-0.556352 0.917798,0.194435 1.517217,0.526059 2.217089,1.226587 0.732031,0.732717 1.077346,1.354229 1.224878,2.204584 0.142421,0.82089 0.133805,16.873339 -0.01009,18.795587 -0.392367,5.241592 -1.668272,9.984356 -3.953237,14.694873 -1.287414,2.654041 -1.855516,3.562056 -4.938619,7.893552 -1.054235,1.481109 -2.574285,3.616986 -3.377889,4.746392 -1.487106,2.090019 -2.403977,3.448498 -2.639757,3.911191 -0.284793,0.558878 -0.327942,0.467804 2.861901,6.040513 1.147541,2.004772 2.217863,3.921786 2.378495,4.26003 0.364693,0.767941 0.375779,1.092839 0.05273,1.545201 -0.202222,0.283168 -0.681785,0.592832 -3.093028,1.997236 -7.199092,4.193038 -7.355364,4.273317 -8.006848,4.113188 z"
     id="path4574"
     inkscape:connector-curvature="0" />
  <path
     style="fill:#325d80;stroke:#325d80;stroke-width:0.08038585;stroke-opacity:1;fill-opacity:1"
     d="m 54.977931,52.195037 c -3.030352,-0.628629 -5.366723,-2.737354 -6.32409,-5.707899 -0.152497,-0.473171 -0.18718,-0.794312 -0.217986,-2.018402 -0.04217,-1.675827 0.05446,-2.227389 0.611313,-3.489288 0.459656,-1.041633 0.95135,-1.725154 1.89441,-2.633483 0.752056,-0.72436 0.943653,-0.861145 1.822251,-1.300945 0.540008,-0.270312 1.193519,-0.55033 1.452249,-0.622263 0.258729,-0.07193 0.470417,-0.152351 0.470417,-0.178706 0,-0.109698 2.703879,-0.09333 3.339146,0.02021 2.226506,0.397948 4.453679,2.051184 5.559371,4.126736 2.492167,4.678176 -0.0056,10.311131 -5.186666,11.696854 -0.808584,0.216264 -2.620837,0.273056 -3.420415,0.107188 z M 57.5,49.343175 c 0,-0.03722 0.07235,-0.04875 0.160772,-0.02563 0.08842,0.02312 0.160771,0.005 0.160771,-0.04019 0,-0.04523 0.06406,-0.06548 0.142355,-0.04501 0.277948,0.07268 1.456296,-0.606826 2.08048,-1.19974 0.326661,-0.310297 0.578947,-0.57916 0.560633,-0.597473 -0.01831,-0.01831 0.05525,-0.121842 0.16347,-0.230064 0.108221,-0.108221 0.174597,-0.232637 0.147501,-0.276478 -0.0271,-0.04384 -0.009,-0.07971 0.04029,-0.07971 0.121436,0 0.43312,-0.727587 0.585406,-1.36656 0.122591,-0.51437 0.176735,-2.169969 0.071,-2.170873 -0.02925,-2.49e-4 -0.05819,-0.137881 -0.0643,-0.305846 -0.02444,-0.67188 -0.787298,-2.003128 -1.516058,-2.645645 -0.524947,-0.462825 -1.405334,-1.004768 -1.545111,-0.951131 -0.05663,0.02173 -0.102963,0.0055 -0.102963,-0.03611 0,-0.186451 -0.929353,-0.359745 -1.92926,-0.359745 -1.015221,0 -1.929261,0.173882 -1.929261,0.367012 0,0.04559 -0.03729,0.05984 -0.08286,0.03167 -0.114973,-0.07106 -0.917142,0.39145 -1.422997,0.82046 -0.425268,0.360665 -0.96279,1.035347 -0.925812,1.162052 0.01105,0.03787 -0.01835,0.06886 -0.06533,0.06886 -0.109455,0 -0.578159,1.0272 -0.515192,1.129082 0.02607,0.04219 0.01237,0.07671 -0.03046,0.07671 -0.04283,0 -0.113409,0.244172 -0.156849,0.542605 -0.10053,0.690641 -0.117528,1.868971 -0.02696,1.868971 0.03802,0 0.05183,0.09043 0.0307,0.200964 -0.02336,0.122184 -0.0014,0.200965 0.05608,0.200965 0.05198,0 0.07171,0.03688 0.04385,0.08196 -0.05808,0.09398 0.104989,0.641515 0.191063,0.641515 0.03138,0 0.06259,0.07364 0.06937,0.163647 0.01525,0.202409 0.328142,0.720597 0.435115,0.720597 0.04322,0 0.05486,0.03838 0.02587,0.08529 -0.02899,0.04691 0.249221,0.382046 0.618246,0.744754 0.720426,0.708095 1.474995,1.16842 2.248427,1.371655 C 55.489707,49.415682 57.5,49.457352 57.5,49.343175 Z"
     id="path4976"
     inkscape:connector-curvature="0" />
  <path
     style="fill:#325d80;stroke:none;stroke-width:0.08038585;fill-opacity:1"
     d="m 34.49602,88.973501 c -0.437394,-0.237863 -0.655632,-0.593513 -0.694576,-1.13191 -0.06426,-0.888429 0.104538,-1.058381 2.147184,-2.161826 1.283363,-0.693276 2.419539,-1.413991 2.419539,-1.534793 0,-0.04781 0.03067,-0.06798 0.06816,-0.04481 0.08053,0.04977 1.127063,-0.795806 1.190931,-0.962242 0.02416,-0.06297 0.07226,-0.09698 0.106886,-0.07558 0.08102,0.05008 0.654053,-0.645742 0.587006,-0.712789 -0.02778,-0.02778 -0.009,-0.05051 0.04163,-0.05051 0.110253,0 0.431773,-0.601479 0.359926,-0.673326 -0.02758,-0.02758 -0.0019,-0.05015 0.05704,-0.05015 0.05895,0 0.08479,-0.02239 0.05742,-0.04976 -0.02737,-0.02737 0.0049,-0.104381 0.07161,-0.171137 0.06676,-0.06676 0.102341,-0.17097 0.07908,-0.231587 -0.02326,-0.06062 -0.0034,-0.110214 0.04417,-0.110214 0.04756,0 0.06564,-0.05426 0.04019,-0.120579 -0.02545,-0.06632 -0.01423,-0.120579 0.02493,-0.120579 0.112514,0 0.245296,-0.756382 0.245296,-1.397302 0,-0.638257 -0.143228,-1.496588 -0.249733,-1.496588 -0.03672,0 -0.04594,-0.05426 -0.0205,-0.120579 0.02545,-0.06632 0.0041,-0.120579 -0.04746,-0.120579 -0.05155,0 -0.07146,-0.03603 -0.04424,-0.08007 0.106568,-0.17243 -0.558798,-1.249162 -1.121928,-1.815567 -0.577649,-0.581007 -1.492823,-1.166936 -1.855287,-1.187824 -0.108744,-0.0063 -0.197743,-0.03596 -0.197774,-0.06598 -5.9e-5,-0.05729 -0.81171,-0.24593 -0.934054,-0.217085 -0.03895,0.0092 -0.175324,-0.0125 -0.303045,-0.0482 -0.270062,-0.07547 -1.764939,0.08834 -1.802717,0.197543 -0.01391,0.04021 -0.07721,0.05318 -0.140675,0.02883 -0.06346,-0.02435 -0.115386,-0.0054 -0.115386,0.04218 0,0.04756 -0.05426,0.06564 -0.120578,0.04019 -0.06632,-0.02545 -0.120579,-0.0041 -0.120579,0.04746 0,0.05155 -0.03616,0.07138 -0.08036,0.04407 -0.160544,-0.09922 -1.077335,0.488208 -1.716714,1.099978 -0.360082,0.344533 -0.619516,0.626846 -0.576519,0.627363 0.043,5.14e-4 0.0043,0.05269 -0.08601,0.115939 -0.238478,0.167037 -0.644217,1.111357 -0.796789,1.854453 -0.158101,0.770022 -0.215198,1.711521 -0.275438,4.5418 -0.05004,2.351166 -0.04529,2.329335 -0.589397,2.707339 -0.419475,0.291418 -0.971814,0.337566 -1.403622,0.117275 -0.796977,-0.406588 -0.864998,-0.732835 -0.865464,-4.15098 -3.1e-4,-2.271817 0.02071,-2.748494 0.146362,-3.31962 0.663284,-3.014751 2.266573,-5.024926 4.945662,-6.200786 1.125727,-0.494085 1.668699,-0.594184 3.22755,-0.595015 1.304974,-6.97e-4 1.459096,0.01519 2.130225,0.219513 1.621195,0.493578 2.357364,0.918794 3.422135,1.976644 1.095422,1.088304 1.75921,2.23948 2.179263,3.779392 0.162528,0.595827 0.185572,0.858187 0.18004,2.04984 -0.0058,1.243717 -0.02592,1.431594 -0.22413,2.090032 -0.277555,0.922021 -0.834458,2.053661 -1.337965,2.718779 -1.009145,1.33305 -3.28987,2.978106 -5.998479,4.326621 -1.146655,0.570877 -1.574663,0.652761 -2.052818,0.392731 z"
     id="path4978"
     inkscape:connector-curvature="0" />
</svg>
