<svg width="64" height="55" viewBox="0 0 64 55" xmlns="http://www.w3.org/2000/svg"><title>Group 3</title><g stroke="#325C80" stroke-width="2" fill="none" fill-rule="evenodd" stroke-linecap="round" stroke-linejoin="round"><path d="M7.57 28.021h12.705v25.566H7.57zm3.033 9.046h6.64m-6.64-3.033h6.64m-6.64-2.98h6.64m3.032 0h6.379v19.501h-6.379m0-10.456h3.347m-3.347-3.032h3.347m-3.347-3.033h3.347m-16.104-2.98H1.14v19.501h6.378m0-10.456H4.172m3.346-3.032H4.172m3.346-3.033H4.172m46.077-7.19v10.998a2.3 2.3 0 0 1-2.33 2.33H32.477"/><path d="M36.92 44.689l-4.442-4.443 4.443-4.516M7.11 21.678V10.68a2.3 2.3 0 0 1 2.33-2.33h15.44"/><path d="M20.438 3.833l4.515 4.443-4.515 4.516m35.92 9.67h.136c3.598 0 6.45-2.92 6.45-6.45 0-3.394-2.648-6.178-6.043-6.45-.204-4.345-3.87-7.875-8.283-7.875-3.327 0-6.178 1.969-7.536 4.752-.95-.407-2.037-.61-3.123-.61-4.55 0-8.283 3.734-8.283 8.282 0 4.55 3.734 8.283 8.283 8.283l18.399.068z"/></g></svg>