<svg width="47" height="52" viewBox="0 0 47 52" xmlns="http://www.w3.org/2000/svg"><title>Group Copy 10</title><g transform="translate(1.5 1.712)" fill="none" fill-rule="evenodd"><circle stroke="#325C80" stroke-width="2" cx="39.7" cy="14.3" r="3.9"/><circle stroke="#325C80" stroke-width="2" cx="21.9" cy="24.5" r="3.9"/><circle stroke="#325C80" stroke-width="2" cx="39.7" cy="34.7" r="3.9"/><circle stroke="#325C80" stroke-width="2" cx="4.1" cy="14.3" r="3.9"/><circle stroke="#325C80" stroke-width="2" cx="4.1" cy="34.7" r="3.9"/><circle stroke="#325C80" stroke-width="2" cx="21.9" cy="45" r="3.9"/><circle stroke="#325C80" stroke-width="2" cx="21.9" cy="4" r="3.9"/><circle stroke="#325C80" stroke-width="2" cx="21.9" cy="4" r="3.9"/><circle fill="#325C80" fill-rule="nonzero" cx="30.8" cy="19.4" r="1.8"/><circle fill="#325C80" fill-rule="nonzero" cx="21.9" cy="14.3" r="1.8"/><circle fill="#325C80" fill-rule="nonzero" cx="30.8" cy="39.9" r="1.8"/><circle fill="#325C80" fill-rule="nonzero" cx="30.8" cy="29.6" r="1.8"/><circle fill="#325C80" fill-rule="nonzero" cx="13" cy="29.6" r="1.8"/><circle fill="#325C80" fill-rule="nonzero" cx="21.8" cy="34.7" r="1.8"/><circle fill="#325C80" fill-rule="nonzero" cx="13" cy="19.4" r="1.8"/><circle fill="#325C80" fill-rule="nonzero" cx="4.1" cy="24.5" r="1.8"/><circle fill="#325C80" fill-rule="nonzero" cx="39.7" cy="24.5" r="1.8"/><circle fill="#325C80" fill-rule="nonzero" cx="13" cy="39.9" r="1.8"/><circle fill="#325C80" fill-rule="nonzero" cx="30.8" cy="9.1" r="1.8"/><circle fill="#325C80" fill-rule="nonzero" cx="13" cy="9.1" r="1.8"/></g></svg>