<?xml version="1.0" encoding="UTF-8" standalone="no"?>
<svg xmlns="http://www.w3.org/2000/svg" viewBox="0 0 89 74" version="1.1"><!-- Generator: Sketch 50.2 (55047) - http://www.bohemiancoding.com/sketch -->
  <title>multi-cloud-ico</title>
  <desc>Created with Sketch.</desc>
  <g id="diagrams,-images,-icons" fill-rule="evenodd" fill="none">
    <g id="new-icons" transform="translate(-1402 -365)">
      <g id="multi-cloud-ico" transform="translate(1402 365)">
        <g fill="#325C80">
          <g id="reverse-ico" transform="translate(7 10)">
            <g id="public-cloud-ico">
              <path d="m6.5322 4.5996c-1.3964 0-3.2771 0.3782-4.2438 2.1976-0.5551 1.0426-0.5507 2.9518 0.4168 4.3428 0.792 1.138 2.1072 1.74 3.8045 1.74h9.9433c0.073 0.005 1.998 0.203 3.331-0.765 0.738-0.536 1.17-1.344 1.283-2.3996 0.012-0.1117 0.253-2.6908-3.227-3.0909l-0.398-0.0461 0.021-0.3626c0.007-0.1345 0.144-3.3106-3.529-3.8928-0.181-0.0501-2.962-0.8347-5.1866 2.3008l-0.172 0.2423-0.307-0.0766c-0.0709-0.0172-0.7937-0.1899-1.7362-0.1899m10.994 10.021c-0.36 0-0.592-0.027-0.623-0.031l-10.892 0.004c-2.7954 0-4.2599-1.366-4.995-2.512-1.2884-2.005-1.2246-4.6294-0.51235-6.0821 1.8216-3.71 6.1114-3.201 7.355-2.9641 2.8444-4.0513 6.5264-2.883 6.5644-2.869 3.952 0.67316 4.519 3.9785 4.593 5.1674 4.342 0.7692 3.98 4.607 3.975 4.6462-0.151 1.5176-0.747 2.6976-1.771 3.5006-1.259 0.986-2.837 1.14-3.694 1.14"/>
            </g>
          </g>
          <g transform="translate(33 10)">
            <path d="m6.5322 4.5996c-1.3964 0-3.2771 0.3782-4.2438 2.1976-0.5551 1.0426-0.5507 2.9518 0.4168 4.3428 0.792 1.138 2.1072 1.74 3.8045 1.74h9.9433c0.073 0.005 1.998 0.203 3.331-0.765 0.738-0.536 1.17-1.344 1.283-2.3996 0.012-0.1117 0.253-2.6908-3.227-3.0909l-0.398-0.0461 0.021-0.3626c0.007-0.1345 0.144-3.3106-3.529-3.8928-0.181-0.0501-2.962-0.8347-5.1866 2.3008l-0.172 0.2423-0.307-0.0766c-0.0709-0.0172-0.7937-0.1899-1.7362-0.1899m10.994 10.021c-0.36 0-0.592-0.027-0.623-0.031l-10.892 0.004c-2.7954 0-4.2599-1.366-4.995-2.512-1.2884-2.005-1.2246-4.6294-0.51235-6.0821 1.8216-3.71 6.1114-3.201 7.355-2.9641 2.8444-4.0513 6.5264-2.883 6.5644-2.869 3.952 0.67316 4.519 3.9785 4.593 5.1674 4.342 0.7692 3.98 4.607 3.975 4.6462-0.151 1.5176-0.747 2.6976-1.771 3.5006-1.259 0.986-2.837 1.14-3.694 1.14"/>
          </g>
          <g transform="translate(60 10)">
            <path d="m6.5322 4.5996c-1.3964 0-3.2771 0.3782-4.2438 2.1976-0.5551 1.0426-0.5507 2.9518 0.4168 4.3428 0.792 1.138 2.1072 1.74 3.8045 1.74h9.9433c0.073 0.005 1.998 0.203 3.331-0.765 0.738-0.536 1.17-1.344 1.283-2.3996 0.012-0.1117 0.253-2.6908-3.227-3.0909l-0.398-0.0461 0.021-0.3626c0.007-0.1345 0.144-3.3106-3.529-3.8928-0.181-0.0501-2.962-0.8347-5.1866 2.3008l-0.172 0.2423-0.307-0.0766c-0.0709-0.0172-0.7937-0.1899-1.7362-0.1899m10.994 10.021c-0.36 0-0.592-0.027-0.623-0.031l-10.892 0.004c-2.7954 0-4.2599-1.366-4.995-2.512-1.2884-2.005-1.2246-4.6294-0.51235-6.0821 1.8216-3.71 6.1114-3.201 7.355-2.9641 2.8444-4.0513 6.5264-2.883 6.5644-2.869 3.952 0.67316 4.519 3.9785 4.593 5.1674 4.342 0.7692 3.98 4.607 3.975 4.6462-0.151 1.5176-0.747 2.6976-1.771 3.5006-1.259 0.986-2.837 1.14-3.694 1.14"/>
          </g>
          <g transform="translate(7 30)">
            <path d="m6.5322 4.5996c-1.3964 0-3.2771 0.3782-4.2438 2.1976-0.5551 1.0426-0.5507 2.9518 0.4168 4.3428 0.792 1.138 2.1072 1.74 3.8045 1.74h9.9433c0.073 0.005 1.998 0.203 3.331-0.765 0.738-0.536 1.17-1.344 1.283-2.3996 0.012-0.1117 0.253-2.6908-3.227-3.0909l-0.398-0.0461 0.021-0.3626c0.007-0.1345 0.144-3.3106-3.529-3.8928-0.181-0.0501-2.962-0.8347-5.1866 2.3008l-0.172 0.2423-0.307-0.0766c-0.0709-0.0172-0.7937-0.1899-1.7362-0.1899m10.994 10.021c-0.36 0-0.592-0.027-0.623-0.031l-10.892 0.004c-2.7954 0-4.2599-1.366-4.995-2.512-1.2884-2.005-1.2246-4.6294-0.51235-6.0821 1.8216-3.71 6.1114-3.201 7.355-2.9641 2.8444-4.0513 6.5264-2.883 6.5644-2.869 3.952 0.67316 4.519 3.9785 4.593 5.1674 4.342 0.7692 3.98 4.607 3.975 4.6462-0.151 1.5176-0.747 2.6976-1.771 3.5006-1.259 0.986-2.837 1.14-3.694 1.14"/>
          </g>
          <g transform="translate(33 30)">
            <path d="m6.5322 4.5996c-1.3964 0-3.2771 0.3782-4.2438 2.1976-0.5551 1.0426-0.5507 2.9518 0.4168 4.3428 0.792 1.138 2.1072 1.74 3.8045 1.74h9.9433c0.073 0.005 1.998 0.203 3.331-0.765 0.738-0.536 1.17-1.344 1.283-2.3996 0.012-0.1117 0.253-2.6908-3.227-3.0909l-0.398-0.0461 0.021-0.3626c0.007-0.1345 0.144-3.3106-3.529-3.8928-0.181-0.0501-2.962-0.8347-5.1866 2.3008l-0.172 0.2423-0.307-0.0766c-0.0709-0.0172-0.7937-0.1899-1.7362-0.1899m10.994 10.021c-0.36 0-0.592-0.027-0.623-0.031l-10.892 0.004c-2.7954 0-4.2599-1.366-4.995-2.512-1.2884-2.005-1.2246-4.6294-0.51235-6.0821 1.8216-3.71 6.1114-3.201 7.355-2.9641 2.8444-4.0513 6.5264-2.883 6.5644-2.869 3.952 0.67316 4.519 3.9785 4.593 5.1674 4.342 0.7692 3.98 4.607 3.975 4.6462-0.151 1.5176-0.747 2.6976-1.771 3.5006-1.259 0.986-2.837 1.14-3.694 1.14"/>
          </g>
          <g transform="translate(60 30)">
            <path d="m6.5322 4.5996c-1.3964 0-3.2771 0.3782-4.2438 2.1976-0.5551 1.0426-0.5507 2.9518 0.4168 4.3428 0.792 1.138 2.1072 1.74 3.8045 1.74h9.9433c0.073 0.005 1.998 0.203 3.331-0.765 0.738-0.536 1.17-1.344 1.283-2.3996 0.012-0.1117 0.253-2.6908-3.227-3.0909l-0.398-0.0461 0.021-0.3626c0.007-0.1345 0.144-3.3106-3.529-3.8928-0.181-0.0501-2.962-0.8347-5.1866 2.3008l-0.172 0.2423-0.307-0.0766c-0.0709-0.0172-0.7937-0.1899-1.7362-0.1899m10.994 10.021c-0.36 0-0.592-0.027-0.623-0.031l-10.892 0.004c-2.7954 0-4.2599-1.366-4.995-2.512-1.2884-2.005-1.2246-4.6294-0.51235-6.0821 1.8216-3.71 6.1114-3.201 7.355-2.9641 2.8444-4.0513 6.5264-2.883 6.5644-2.869 3.952 0.67316 4.519 3.9785 4.593 5.1674 4.342 0.7692 3.98 4.607 3.975 4.6462-0.151 1.5176-0.747 2.6976-1.771 3.5006-1.259 0.986-2.837 1.14-3.694 1.14"/>
          </g>
        </g>
        <g stroke="#325C80" stroke-width="3">
          <rect rx="4" height="52" width="86" y="1.5" x="1.5"/>
          <rect rx="1" height="11" width="29" y="53.5" x="29.5"/>
          <rect rx="3" height="8" width="61" y="64.5" x="13.5"/>
        </g>
      </g>
    </g>
  </g>
</svg>
