<?xml version="1.0" encoding="UTF-8"?>
<svg width="94px" height="62px" viewBox="0 0 94 62" version="1.1" xmlns="http://www.w3.org/2000/svg" xmlns:xlink="http://www.w3.org/1999/xlink">
    <!-- Generator: Sketch 50.2 (55047) - http://www.bohemiancoding.com/sketch  -->
    <title>public-cloud-ico</title>
    <desc>Created with Sketch.</desc>
    <defs></defs>
    <g id="new-hexes" stroke="none" stroke-width="1" fill="none" fill-rule="evenodd">
        <g id="new-icons" transform="translate(-769.000000, -605.000000)">
            <g id="public-cloud-ico" transform="translate(769.000000, 605.000000)">
                <path d="M24.5821868,15.3481543 C18.2785677,15.3481543 9.78917343,17.2661591 5.42542964,26.4916038 C2.91959465,31.7780055 2.9391105,41.4591744 7.30675746,48.5129938 C10.882061,54.2828595 16.8187822,57.3342308 24.4807044,57.3342308 L69.3671567,57.3342308 C69.695023,57.3619706 78.3834789,58.364564 84.4021667,53.4546302 C87.7354737,50.7361358 89.6831554,46.6425428 90.1944706,41.2887732 C90.249115,40.7220899 91.3380994,27.6447844 75.627841,25.6158206 L73.832383,25.3820142 L73.926059,23.5432658 C73.9572844,22.8616608 74.5739852,6.75676083 57.99332,3.80446002 C57.1775576,3.55083955 44.6249636,-0.427831602 34.5821078,15.4710017 L33.805377,16.6994759 L32.4197517,16.3111195 C32.0996918,16.2239375 28.8366419,15.3481543 24.5821868,15.3481543 M71.6274763,61.0831049 C70.1563912,61.0831049 69.2068019,60.9701384 69.0822656,60.9545568 L24.5683199,60.9701384 C13.1421139,60.9701384 7.15658776,55.2633831 4.15214939,50.4759413 C-1.11340127,42.1008398 -0.852653383,31.1352998 2.05838275,25.0662728 C9.50331876,9.56649178 27.0356955,11.693378 32.1183335,12.6828086 C43.7430192,-4.24268731 58.7924534,0.638243973 58.944232,0.696674914 C75.0989259,3.50915088 77.4145228,17.31833 77.71808,22.28496 C95.4645035,25.4986617 93.9817432,41.532112 93.9622844,41.6957186 C93.3473863,48.0374234 90.9111449,52.9650994 86.7236116,56.3190355 C81.5787055,60.4403645 75.1300599,61.0831049 71.6274763,61.0831049" id="Fill-63" fill="#325C80"></path>
                <g id="Social" transform="translate(27.000000, 18.000000)" stroke="#325C80" stroke-linecap="round" stroke-linejoin="round" stroke-width="1.9998">
                    <g id="person" transform="translate(8.843137, 2.411765)">
                        <path d="M11.5025098,0 C7.63082353,0 4.51964706,3.11117647 4.51964706,6.98286275 C4.51964706,9.8174902 6.24807843,12.3064314 8.66788235,13.3434902 C6.29749463,13.9208923 2.99942708,14.3930162 1.60784314,16.4803922 C8.68749517e-13,18.8921569 0.401960784,28.5000978 0.401960784,31.754902" id="XMLID_4558_"></path>
                        <path d="M22.7574118,0 C18.8857255,0 15.774549,3.11117647 15.774549,6.98286275 C15.774549,9.8174902 17.5029804,12.3064314 19.9227843,13.3434902 C17.5523966,13.9208923 14.254329,14.3930162 12.8627451,16.4803922 C11.254902,18.8921569 11.6568627,28.5000978 11.6568627,31.754902" id="XMLID_4558_" transform="translate(17.184806, 15.877451) scale(-1, 1) translate(-17.184806, -15.877451) "></path>
                    </g>
                    <g id="person">
                        <g id="half-person">
                            <path d="M11.254902,0 C7.34511074,0 4.20331422,3.07179449 4.20331422,6.89447208 C4.20331422,9.69321817 5.94875673,12.1506538 8.39237624,13.1745853 C5.99865928,13.7446785 2.66813231,14.2108262 1.26285246,16.2717796 C-0.360814989,18.6530156 0.0451018737,28.1393371 0.0451018737,31.3529412" id="XMLID_4558_"></path>
                            <path d="M16.8823529,1.55431223e-14 C11.6841143,3.23216824e-14 11.254902,2.81372549 11.254902,3.21568627" id="XMLID_4558_" transform="translate(14.068627, 1.607843) scale(-1, 1) translate(-14.068627, -1.607843) "></path>
                        </g>
                    </g>
                    <g id="person" transform="translate(32.558824, 16.078431) scale(-1, 1) translate(-32.558824, -16.078431) translate(24.117647, 0.000000)">
                        <g id="half-person">
                            <path d="M11.5025098,0 C7.63082353,0 4.51964706,3.11117647 4.51964706,6.98286275 C4.51964706,9.8174902 6.24807843,12.3064314 8.66788235,13.3434902 C6.29749463,13.9208923 2.99942708,14.3930162 1.60784314,16.4803922 C8.68805028e-13,18.8921569 0.401960784,28.5000978 0.401960784,31.754902" id="XMLID_4558_"></path>
                            <path d="M16.8823529,-9.81437154e-14 C12.0141612,-8.13651553e-14 11.6122004,2.81372549 11.6122004,3.21568627" id="XMLID_4558_" transform="translate(14.247277, 1.607843) scale(-1, 1) translate(-14.247277, -1.607843) "></path>
                        </g>
                    </g>
                </g>
            </g>
        </g>
    </g>
</svg>